HIERARCHY
ROOT reference
{
  OFFSET 0 0 0
  CHANNELS 6 Xposition Yposition Zposition Zrotation Xrotation Yrotation
  JOINT Hips
  {
    OFFSET 38.9259 73.8127 -168.747
    CHANNELS 6 Xposition Yposition Zposition Zrotation Xrotation Yrotation
    JOINT Spine
    {
      OFFSET 0 7.85829 0
      CHANNELS 6 Xposition Yposition Zposition Zrotation Xrotation Yrotation
      JOINT Spine1
      {
        OFFSET 0 25.1384 0
        CHANNELS 6 Xposition Yposition Zposition Zrotation Xrotation Yrotation
        JOINT Neck
        {
          OFFSET 0 25.0351 2.27592
          CHANNELS 6 Xposition Yposition Zposition Zrotation Xrotation Yrotation
          JOINT Head
          {
            OFFSET 0 13.4166 -1.91665
            CHANNELS 6 Xposition Yposition Zposition Zrotation Xrotation Yrotation
            End Site
            {
              OFFSET 0 23.9582 0
            }
          }
        }
        JOINT LeftShoulder
        {
          OFFSET 3.81534 24.0346 -0.234509
          CHANNELS 6 Xposition Yposition Zposition Zrotation Xrotation Yrotation
          JOINT LeftArm
          {
            OFFSET 8.62273 0 0
            CHANNELS 6 Xposition Yposition Zposition Zrotation Xrotation Yrotation
            JOINT LeftForeArm
            {
              OFFSET 31.7064 0 0
              CHANNELS 6 Xposition Yposition Zposition Zrotation Xrotation Yrotation
              JOINT LeftHand
              {
                OFFSET 23.7731 0 0
                CHANNELS 6 Xposition Yposition Zposition Zrotation Xrotation Yrotation
                End Site
                {
                  OFFSET 14.3749 0 0
                }
              }
            }
          }
        }
        JOINT RightShoulder
        {
          OFFSET -3.83608 24.0346 -0.234509
          CHANNELS 6 Xposition Yposition Zposition Zrotation Xrotation Yrotation
          JOINT RightArm
          {
            OFFSET -8.62273 0 0
            CHANNELS 6 Xposition Yposition Zposition Zrotation Xrotation Yrotation
            JOINT RightForeArm
            {
              OFFSET -31.7064 0 0
              CHANNELS 6 Xposition Yposition Zposition Zrotation Xrotation Yrotation
              JOINT RightHand
              {
                OFFSET -23.7731 0 0
                CHANNELS 6 Xposition Yposition Zposition Zrotation Xrotation Yrotation
                End Site
                {
                  OFFSET -14.3749 0 0
                }
              }
            }
          }
        }
      }
    }
    JOINT LeftUpLeg
    {
      OFFSET 9.58328 0 0
      CHANNELS 6 Xposition Yposition Zposition Zrotation Xrotation Yrotation
      JOINT LeftLeg
      {
        OFFSET 0 -36.4535 0
        CHANNELS 6 Xposition Yposition Zposition Zrotation Xrotation Yrotation
        JOINT LeftFoot
        {
          OFFSET 0 -41.4659 0
          CHANNELS 6 Xposition Yposition Zposition Zrotation Xrotation Yrotation
          JOINT LeftToeBase
          {
            OFFSET 0 -6.22913 14.3749
            CHANNELS 6 Xposition Yposition Zposition Zrotation Xrotation Yrotation
            End Site
            {
              OFFSET 0 0 3.83331
            }
          }
        }
      }
    }
    JOINT RightUpLeg
    {
      OFFSET -9.58328 0 0
      CHANNELS 6 Xposition Yposition Zposition Zrotation Xrotation Yrotation
      JOINT RightLeg
      {
        OFFSET 0 -36.4535 0
        CHANNELS 6 Xposition Yposition Zposition Zrotation Xrotation Yrotation
        JOINT RightFoot
        {
          OFFSET 0 -41.4659 0
          CHANNELS 6 Xposition Yposition Zposition Zrotation Xrotation Yrotation
          JOINT RightToeBase
          {
            OFFSET 0 -6.22913 14.3749
            CHANNELS 6 Xposition Yposition Zposition Zrotation Xrotation Yrotation
            End Site
            {
              OFFSET 0 0 3.83331
            }
          }
        }
      }
    }
  }
}
MOTION
Frames:	10
Frame Time:	0.004
0 0 0 0 0 -0 136.586 72.7333 -119.757 8.47461 8.76167 -151.814 0 7.85829 0 4.4282 -0.153493 3.41324 2.84217e-014 25.1384 1.42109e-014 3.16987 5.39811 3.25795 0 25.0351 2.27592 1.23195 26.7353 10.8302 0 13.4166 -1.91665 -5.61449 -20.2135 9.63866 3.81534 24.0346 -0.234509 -13.2 19.4154 10.9367 8.62273 0 -1.42109e-014 -31.2292 29.1831 -20.0821 31.7064 -1.42109e-014 0 -3.05419 -16.7862 -130.251 23.7731 0 0 14.6425 -23.5656 -4.98447 -3.83608 24.0346 -0.234509 17.092 30.3001 -3.39785 -8.62273 0 2.84217e-014 12.4903 39.8324 19.345 -31.7064 0 0 -12.0705 -34.7384 116.222 -23.7731 2.84217e-014 0 -24.5899 -16.7769 -1.86451 9.58328 7.10543e-015 0 -2.50085 -3.1621 -2.14238 2.84217e-014 -36.4535 -7.10543e-015 -12.2233 69.6728 17.9891 0 -41.4659 0 25.775 -24.5151 8.14867 2.84217e-014 -6.22913 14.3749 -2.64834e-031 -3.18055e-015 -4.77083e-015 -9.58328 0 -1.42109e-014 -6.23895 -10.3969 0.54107 -2.84217e-014 -36.4535 -1.42109e-014 8.08006 32.6815 8.97254 0 -41.4659 1.42109e-014 2.40876 -21.2171 -11.4454 -2.84217e-014 -6.22913 14.3749 1.98785e-016 3.97569e-016 -0 
0 0 0 0 0 -0 136.437 72.4546 -120.361 8.46465 9.02475 -151.591 0 7.85829 7.10543e-015 4.46984 -0.008846 3.63114 -2.84217e-014 25.1384 0 3.57354 5.68028 3.45356 0 25.0351 2.27592 1.27162 26.6194 10.6652 2.84217e-014 13.4166 -1.91665 -6.12604 -20.4512 9.29771 3.81534 24.0346 -0.234509 -13.3446 19.4582 11.0777 8.62273 0 1.42109e-014 -31.3824 28.6456 -19.8428 31.7064 -7.10543e-015 1.42109e-014 -3.38365 -15.2759 -129.199 23.7731 1.42109e-014 0 14.3779 -22.625 -5.13506 -3.83608 24.0346 -0.234509 17.182 30.15 -3.29318 -8.62273 0 -1.42109e-014 11.795 39.2607 19.8472 -31.7064 1.42109e-014 2.84217e-014 -11.8243 -34.0429 115.681 -23.7731 0 0 -24.5381 -16.61 -1.63085 9.58328 7.10543e-015 0 -1.96586 -3.92937 -1.6714 2.84217e-014 -36.4535 1.42109e-014 -13.5955 70.9456 18.1132 0 -41.4659 3.55271e-015 26.2391 -24.789 9.54176 -2.84217e-014 -6.22913 14.3749 -1.59028e-015 -3.18055e-015 -4.77083e-015 -9.58328 -7.10543e-015 1.42109e-014 -6.31525 -10.3309 -0.155774 2.84217e-014 -36.4535 0 8.25304 34.1566 10.471 0 -41.4659 -2.84217e-014 1.36309 -22.0655 -12.4351 2.84217e-014 -6.22913 14.3749 1.98785e-016 3.97569e-016 -6.36111e-015 
0 0 0 0 0 -0 136.278 72.2656 -120.994 8.46298 9.51207 -151.411 0 7.85829 -7.10543e-015 4.54721 0.240949 3.86202 0 25.1384 -1.42109e-014 4.13331 6.18713 3.64822 0 25.0351 2.27592 1.29681 26.2286 10.4876 -2.84217e-014 13.4166 -1.91665 -6.70329 -20.543 8.92381 3.81534 24.0346 -0.234509 -13.5276 19.3179 11.2643 8.62273 0 2.84217e-014 -31.4381 28.4718 -19.661 31.7064 7.10543e-015 -7.10543e-015 -3.55093 -14.1791 -128.102 23.7731 0 1.42109e-014 13.7712 -21.7368 -5.38136 -3.83608 24.0346 -0.234509 16.9937 29.6736 -3.19676 -8.62273 2.84217e-014 -1.42109e-014 11.104 39.2059 20.5438 -31.7064 1.42109e-014 0 -11.7598 -33.6217 114.983 -23.7731 0 -1.42109e-014 -24.5781 -16.5377 -1.32019 9.58328 1.06581e-014 7.10543e-015 -1.29018 -4.43188 -1.02759 0 -36.4535 7.10543e-015 -14.2862 72.0522 17.9867 2.84217e-014 -41.4659 -7.10543e-015 26.1022 -25.3138 10.2948 -2.84217e-014 -6.22913 14.3749 2.64834e-031 9.54166e-015 -1.59028e-015 -9.58328 7.10543e-015 -7.10543e-015 -6.19707 -9.9795 -0.638573 0 -36.4535 0 8.38722 35.3824 11.7008 0 -41.4659 -1.42109e-014 1.21858 -22.6539 -13.4094 -2.84217e-014 -6.22913 14.3749 2.20695e-032 3.97569e-016 -3.18055e-015 
0 0 0 0 0 -0 136.078 72.0739 -121.558 8.48046 9.84239 -151.223 0 7.85829 -7.10543e-015 4.68332 0.376406 4.11737 0 25.1384 1.42109e-014 4.53938 6.64902 3.86906 0 25.0351 2.27592 1.60072 25.8441 10.3013 2.84217e-014 13.4166 -1.91665 -7.55923 -20.4488 8.48964 3.81534 24.0346 -0.234509 -13.7146 19.2888 11.5059 8.62273 0 0 -31.3615 28.1395 -19.6889 31.7064 7.10543e-015 7.10543e-015 -3.7877 -12.8693 -126.816 23.7731 0 2.84217e-014 13.2184 -20.751 -5.76048 -3.83608 24.0346 -0.234509 17.1976 29.4738 -3.32236 -8.62273 2.84217e-014 1.42109e-014 9.99341 38.8929 21.3731 -31.7064 -2.84217e-014 0 -11.7879 -33.3531 114.158 -23.7731 0 7.10543e-015 -24.7058 -16.5125 -1.1198 9.58328 -1.77636e-014 1.42109e-014 -0.789403 -5.19871 -0.589814 2.84217e-014 -36.4535 7.10543e-015 -15.4994 73.1234 18.3574 0 -41.4659 0 26.8411 -25.9184 10.9566 0 -6.22913 14.3749 3.18055e-015 3.18055e-015 3.18055e-015 -9.58328 1.42109e-014 0 -6.19548 -9.75745 -1.26717 -2.84217e-014 -36.4535 1.42109e-014 8.44395 36.5239 12.9442 0 -41.4659 -1.42109e-014 1.43171 -23.2695 -14.2038 -2.84217e-014 -6.22913 14.3749 4.96962e-016 -1.98785e-016 -6.36111e-015 
0 0 0 0 0 -0 135.9 71.9337 -122.124 8.61406 10.0832 -151.101 0 7.85829 0 4.92131 0.519734 4.35982 -2.84217e-014 25.1384 0 4.70483 6.73872 4.10511 -2.84217e-014 25.0351 2.27592 0.84742 25.5658 10.3101 0 13.4166 -1.91665 -6.16635 -20.435 8.86398 3.81534 24.0346 -0.234509 -13.4715 19.3863 11.6331 8.62273 0 2.84217e-014 -31.7788 27.7413 -19.4518 31.7064 0 1.42109e-014 -4.15522 -11.2433 -125.527 23.7731 -1.42109e-014 0 12.8296 -19.6789 -6.03051 -3.83608 24.0346 -0.234509 17.2842 29.1483 -3.09573 -8.62273 0 0 9.40877 38.8109 21.8497 -31.7064 -1.42109e-014 2.84217e-014 -11.719 -32.8673 113.277 -23.7731 -2.84217e-014 1.42109e-014 -24.641 -16.4224 -0.822545 9.58328 3.55271e-015 -1.42109e-014 -0.209555 -6.09154 0.106929 0 -36.4535 7.10543e-015 -15.9073 74.0762 18.3376 2.84217e-014 -41.4659 7.10543e-015 26.3254 -26.2653 10.9528 0 -6.22913 14.3749 -4.77083e-015 0 -1.59028e-015 -9.58328 0 0 -6.02004 -9.61556 -1.73445 0 -36.4535 0 8.39162 37.4527 13.5983 -2.84217e-014 -41.4659 0 1.91289 -23.6147 -14.2816 -2.84217e-014 -6.22913 14.3749 -1.49089e-016 2.98177e-016 3.18055e-015 
0 0 0 0 0 -0 135.718 71.7996 -122.659 8.66424 10.2698 -150.922 0 7.85829 7.10543e-015 5.04284 0.606046 4.61603 0 25.1384 -1.42109e-014 4.93139 6.90854 4.34496 0 25.0351 2.27592 1.05658 25.5754 10.1285 0 13.4166 -1.91665 -6.5368 -20.6518 8.56567 3.81534 24.0346 -0.234509 -13.3519 19.3098 11.5549 8.62273 0 -4.26326e-014 -31.9658 27.8297 -19.1146 31.7064 7.10543e-015 1.42109e-014 -4.36405 -10.242 -124.207 23.7731 0 1.42109e-014 12.6571 -18.8857 -6.16638 -3.83608 24.0346 -0.234509 17.5443 28.6004 -2.76571 -8.62273 0 -1.42109e-014 8.87758 39.0576 21.9919 -31.7064 0 0 -11.8591 -32.7102 112.256 -23.7731 0 -1.42109e-014 -24.6889 -16.4668 -0.368582 9.58328 0 0 0.309248 -6.93335 0.441104 2.84217e-014 -36.4535 -7.10543e-015 -17.9613 74.6453 19.7159 2.84217e-014 -41.4659 0 26.7201 -26.2943 11.5642 0 -6.22913 14.3749 1.59028e-015 3.18055e-015 -0 -9.58328 -7.10543e-015 1.42109e-014 -5.94448 -9.42157 -2.20234 2.84217e-014 -36.4535 1.42109e-014 8.29936 38.2489 14.226 0 -41.4659 -1.42109e-014 1.77118 -23.9692 -14.4334 -2.84217e-014 -6.22913 14.3749 -1.49089e-016 2.98177e-016 -0 
0 0 0 0 0 -0 135.509 71.677 -123.231 8.61625 10.4717 -150.733 0 7.85829 0 5.04632 0.601056 4.92004 2.84217e-014 25.1384 0 5.22863 7.28658 4.61347 0 25.0351 2.27592 2.0624 25.7648 9.9037 2.84217e-014 13.4166 -1.91665 -8.23948 -20.9356 7.86883 3.81534 24.0346 -0.234509 -13.1759 19.3359 11.4457 8.62273 0 2.84217e-014 -32.1963 27.539 -18.9481 31.7064 7.10543e-015 7.10543e-015 -4.92125 -8.39844 -122.841 23.7731 1.42109e-014 0 13.5681 -17.9067 -6.07958 -3.83608 24.0346 -0.234509 17.8054 28.5017 -2.72078 -8.62273 0 1.42109e-014 7.93477 38.9174 22.723 -31.7064 0 -2.84217e-014 -12.2954 -32.8611 110.901 -23.7731 0 1.42109e-014 -24.2664 -16.5152 -0.042879 9.58328 -7.10543e-015 0 0.735876 -7.72257 0.74185 2.84217e-014 -36.4535 0 -19.4452 75.3931 20.8518 0 -41.4659 -3.55271e-015 26.4407 -26.5719 11.0906 0 -6.22913 14.3749 3.18055e-015 3.18055e-015 -3.18055e-015 -9.58328 -3.55271e-015 0 -5.93078 -9.04925 -2.53736 2.84217e-014 -36.4535 0 8.27273 38.8502 14.5128 0 -41.4659 1.42109e-014 2.25971 -24.4203 -14.2851 2.84217e-014 -6.22913 14.3749 3.85145e-016 2.48481e-017 -6.36111e-015 
0 0 0 0 0 -0 135.287 71.5791 -123.787 8.49983 10.6237 -150.526 0 7.85829 -7.10543e-015 5.04136 0.884137 5.17138 0 25.1384 -1.42109e-014 5.34926 7.01531 4.88227 0 25.0351 2.27592 2.19386 26.3561 9.75703 2.84217e-014 13.4166 -1.91665 -8.3446 -21.4538 7.671 3.81534 24.0346 -0.234509 -12.9943 19.4256 11.1593 8.62273 0 -1.42109e-014 -32.6747 26.7988 -18.1659 31.7064 0 0 -5.67482 -6.1086 -121.354 23.7731 0 0 14.0931 -16.7654 -6.11747 -3.83608 24.0346 -0.234509 18.1575 28.4508 -2.41019 -8.62273 0 1.42109e-014 7.30327 39.2285 23.2211 -31.7064 0 0 -12.9094 -33.2553 109.463 -23.7731 2.84217e-014 -1.42109e-014 -24.178 -16.5088 -0.3253 9.58328 -3.55271e-015 7.10543e-015 1.08302 -8.54931 1.05544 0 -36.4535 1.42109e-014 -21.7428 75.7913 22.2237 0 -41.4659 0 27.4477 -26.2377 12.4276 0 -6.22913 14.3749 -1.76556e-031 -3.18055e-015 -3.18055e-015 -9.58328 -1.06581e-014 -1.42109e-014 -5.96092 -8.60071 -2.76915 0 -36.4535 -7.10543e-015 8.22841 39.2636 14.4149 0 -41.4659 1.42109e-014 2.69081 -24.8193 -13.8354 0 -6.22913 14.3749 1.98785e-016 -9.93923e-017 -3.18055e-015 
0 0 0 0 0 -0 135.056 71.4856 -124.319 8.37481 10.7126 -150.345 0 7.85829 7.10543e-015 4.93304 1.0834 5.46526 -2.84217e-014 25.1384 1.42109e-014 5.61875 6.8871 5.17366 0 25.0351 2.27592 1.94029 26.6023 9.65446 2.84217e-014 13.4166 -1.91665 -7.90193 -21.8312 7.66155 3.81534 24.0346 -0.234509 -12.8224 19.4303 11.0135 8.62273 0 -2.84217e-014 -32.9145 26.6755 -17.7489 31.7064 0 0 -6.3249 -4.51946 -119.957 23.7731 -1.42109e-014 2.84217e-014 14.256 -16.1026 -6.46068 -3.83608 24.0346 -0.234509 18.3217 28.2012 -2.32883 -8.62273 0 -1.42109e-014 6.74341 39.1993 23.7853 -31.7064 0 2.84217e-014 -13.1299 -32.9495 108.463 -23.7731 0 7.10543e-015 -24.3508 -16.2224 -0.13418 9.58328 -7.10543e-015 1.42109e-014 1.32727 -9.33467 1.32005 2.84217e-014 -36.4535 2.84217e-014 -23.5919 76.092 23.5268 0 -41.4659 0 26.6165 -26.8184 12.1687 -2.84217e-014 -6.22913 14.3749 0 0 -0 -9.58328 -7.10543e-015 1.42109e-014 -6.01056 -8.15524 -2.91203 0 -36.4535 1.42109e-014 8.19552 39.5391 13.9961 0 -41.4659 -2.84217e-014 2.43772 -25.0273 -13.3683 2.84217e-014 -6.22913 14.3749 -4.96962e-017 5.96354e-016 -6.36111e-015 
0 0 0 0 0 -0 134.81 71.4047 -124.867 8.21767 10.7754 -150.137 0 7.85829 -7.10543e-015 4.81628 1.28444 5.7523 0 25.1384 0 5.79757 6.73492 5.46498 0 25.0351 2.27592 2.41172 26.6049 9.41505 0 13.4166 -1.91665 -8.4647 -21.5164 7.29861 3.81534 24.0346 -0.234509 -12.6516 19.6212 10.8544 8.62273 -1.42109e-014 0 -33.1063 26.6661 -17.3718 31.7064 0 0 -6.72949 -3.34373 -118.58 23.7731 1.42109e-014 0 15.168 -15.3866 -6.40644 -3.83608 24.0346 -0.234509 18.3532 27.8451 -2.14123 -8.62273 0 -1.42109e-014 6.49054 38.7156 24.1487 -31.7064 0 2.84217e-014 -12.8279 -31.7805 107.831 -23.7731 0 1.42109e-014 -24.3945 -15.5868 0.218662 9.58328 3.55271e-015 0 1.59992 -10.1332 1.39208 0 -36.4535 -7.10543e-015 -26.2619 76.3536 24.781 0 -41.4659 -3.55271e-015 26.9465 -26.5279 13.0588 -2.84217e-014 -6.22913 14.3749 -1.59028e-015 -3.18055e-015 -3.18055e-015 -9.58328 1.06581e-014 -7.10543e-015 -6.08868 -7.61565 -3.14791 0 -36.4535 1.42109e-014 8.0578 39.6842 13.6438 -2.84217e-014 -41.4659 1.42109e-014 2.51227 -25.4357 -12.7572 0 -6.22913 14.3749 5.46658e-016 9.93923e-017 -3.18055e-015 
